<mxfile host="app.diagrams.net" modified="2023-10-20T07:58:14.768Z" agent="Mozilla/5.0 (Windows NT 10.0; Win64; x64) AppleWebKit/537.36 (KHTML, like Gecko) Chrome/118.0.0.0 Safari/537.36 Edg/118.0.2088.46" version="22.0.5" etag="OihPNKQhe1igIi5NOy3E" type="github">
  <diagram name="Page-1" id="bL0i8_ajEdOwbKC4C0fJ">
    <mxGraphModel>
      <root>
        <mxCell id="0" />
        <mxCell id="1" parent="0" />
      </root>
    </mxGraphModel>
  </diagram>
</mxfile>
